<?xml version="1.0" encoding="UTF-8" standalone="no"?> <svg id="Layer_1" data-name="Layer 1" xmlns="http://www.w3.org/2000/svg" viewBox="0 0 24 24"><title>Artboard 5</title><path d="M19.69,1H4.31A3.31,3.31,0,0,0,1,4.31V19.69A3.31,3.31,0,0,0,4.31,23H19.69A3.31,3.31,0,0,0,23,19.69V4.31A3.31,3.31,0,0,0,19.69,1ZM21,19.69A1.31,1.31,0,0,1,19.69,21H4.31A1.31,1.31,0,0,1,3,19.69V16.47L8.45,12a.56.56,0,0,1,.42-.16.54.54,0,0,1,.4.22l.66.88a2.48,2.48,0,0,0,2.07,1,2.52,2.52,0,0,0,2-1.07l2-2.81a.56.56,0,0,1,.53-.22.54.54,0,0,1,.43.37l4,7.06Zm0-6.48L18.87,9.46a2.52,2.52,0,0,0-2-1.61,2.55,2.55,0,0,0-2.45,1l-2,2.81a.54.54,0,0,1-.44.23.61.61,0,0,1-.45-.22l-.66-.88A2.58,2.58,0,0,0,9,9.81a2.49,2.49,0,0,0-1.91.68L3,13.88V4.31A1.31,1.31,0,0,1,4.31,3H19.69A1.31,1.31,0,0,1,21,4.31Z"/><circle cx="6.5" cy="6.5" r="1.5"/></svg>